#!OML:ASF F:\VICON\USERDATA\INSTALL\Justin_Nancy\Justin_Nancy.ASF
:FULLY-SPECIFIED
:DEGREES
441
root -14.6036 17.4044 12.5909 157.845 -83.6299 -155.779
lowerback 4.88894 2.8942 1.53449
upperback -0.111669 3.98008 1.88902
thorax -2.88223 1.96369 0.79458
lowerneck -16.0053 -4.6835 -6.79701
upperneck 24.8765 -6.37541 4.54784
head 11.0616 -3.13135 1.85106
rclavicle -7.52897e-015 -7.15625e-015
rhumerus -27.9431 -12.4989 -80.5829
rradius 33.4189
rwrist 4.89643
rhand -16.2716 12.1204
rfingers 7.12502
rthumb 9.9381 -17.625
lclavicle -7.52897e-015 -7.15625e-015
lhumerus -32.6364 11.0063 84.7249
lradius 22.7648
lwrist -9.09373
lhand -14.2449 25.7778
lfingers 7.12502
lthumb 11.893 55.42
rfemur 6.21662 4.12859 27.5468
rtibia 32.7831
rfoot -5.79368 -0.49741
rtoes 0.709191
lfemur -25.6918 -1.68286 -17.8044
ltibia 27.2283
lfoot -2.70806 4.14731
ltoes 10.0909
442
root -14.7714 17.401 12.6109 158.832 -84.009 -157.031
lowerback 4.93899 2.68893 1.30618
upperback -0.0927028 3.69488 1.88047
thorax -2.90307 1.82529 0.931308
lowerneck -15.7938 -4.60778 -7.10394
upperneck 24.9082 -6.2704 4.77345
head 11.0442 -3.09264 2.00385
rclavicle -2.6339e-014 -1.82882e-014
rhumerus -28.4156 -13.0073 -80.3879
rradius 33.2836
rwrist 5.15726
rhand -14.9686 12.9896
rfingers 7.12502
rthumb 11.195 -16.6917
lclavicle -2.6339e-014 -1.82882e-014
lhumerus -32.7481 11.7086 84.3774
lradius 22.5059
lwrist -10.1349
lhand -13.4957 25.4566
lfingers 7.12502
lthumb 12.6153 55.0557
rfemur 5.55591 3.60537 27.0778
rtibia 35.0289
rfoot -3.69262 -0.44923
rtoes -0.864976
lfemur -25.1461 -1.29355 -18.4592
ltibia 27.6703
lfoot -2.67538 3.33565
ltoes 9.90407
443
root -14.9368 17.3976 12.632 158.125 -84.3129 -156.507
lowerback 4.9389 2.62607 1.38022
upperback -0.0592839 3.6128 1.80104
thorax -2.858 1.78334 0.815572
lowerneck -15.7217 -4.61557 -6.94538
upperneck 24.9231 -6.33252 4.76473
head 11.0335 -3.10953 1.96615
rclavicle -1.64494e-014 -9.54166e-015
rhumerus -28.894 -13.8434 -80.1997
rradius 33.1318
rwrist 5.36412
rhand -14.6896 13.2073
rfingers 7.12502
rthumb 11.4641 -16.4592
lclavicle -1.64494e-014 -9.54166e-015
lhumerus -32.6813 11.5344 84.3254
lradius 22.2964
lwrist -10.5821
lhand -13.3202 25.1892
lfingers 7.12502
lthumb 12.7845 54.7777
rfemur 4.73938 3.09104 26.7836
rtibia 37.2514
rfoot -1.367 -0.258136
rtoes -0.928946
lfemur -24.6992 -0.762852 -18.9128
ltibia 28.1147
lfoot -2.82682 2.44824
ltoes 11.5673
444
root -15.0958 17.4076 12.6578 158.04 -84.4847 -156.647
lowerback 5.06241 2.66773 1.36078
upperback -4.21811e-005 3.66829 1.79661
thorax -2.86743 1.81094 0.813301
lowerneck -15.7533 -4.74255 -6.75057
upperneck 24.9281 -6.48857 4.49447
head 11.0352 -3.19288 1.81144
rclavicle -2.21893e-014 -2.18663e-014
rhumerus -29.4289 -13.4018 -80.1313
rradius 33.2278
rwrist 4.43028
rhand -15.7494 12.2859
rfingers 7.12502
rthumb 10.4419 -17.4348
lclavicle -2.21893e-014 -2.18663e-014
lhumerus -32.543 11.1276 84.6046
lradius 22.1601
lwrist -10.7628
lhand -13.2642 25.256
lfingers 7.12502
lthumb 12.8385 54.8412
rfemur 3.77765 2.62663 26.3403
rtibia 39.5488
rfoot 1.10522 0.0872473
rtoes 0.16684
lfemur -24.0663 -0.301713 -19.3282
ltibia 28.4091
lfoot -3.28736 1.80106
ltoes 14.9089
445
root -15.2567 17.4229 12.6775 160.274 -84.6727 -159.088
lowerback 5.09748 2.60845 0.842738
upperback 0.0446059 3.56285 1.96012
thorax -2.88254 1.76668 1.27685
lowerneck -15.6983 -4.72898 -6.79358
upperneck 24.9539 -6.35932 4.12158
head 11.0143 -3.18425 1.70356
rclavicle -1.57537e-014 -1.15295e-014
rhumerus -30.0424 -11.4656 -80.0113
rradius 33.6102
rwrist 2.98366
rhand -15.8566 11.6533
rfingers 7.12502
rthumb 10.3385 -18.0725
lclavicle -1.57537e-014 -1.15295e-014
lhumerus -32.5901 11.1769 84.8645
lradius 22.1639
lwrist -11.0496
lhand -13.2644 25.6817
lfingers 7.12502
lthumb 12.8383 55.2669
rfemur 2.68915 2.30657 25.7514
rtibia 41.8607
rfoot 3.60944 0.533182
rtoes -1.10493
lfemur -23.3318 -0.198047 -19.8866
ltibia 28.5833
lfoot -3.84569 1.58251
ltoes 13.8002
446
root -15.4196 17.4371 12.6951 163.518 -84.9371 -162.453
lowerback 5.07571 2.45868 0.401951
upperback 0.02458 3.33947 1.96918
thorax -2.91269 1.66266 1.54941
lowerneck -15.6024 -4.64253 -6.96279
upperneck 25.013 -6.15453 3.94508
head 11.005 -3.1321 1.69981
rclavicle 1.98039e-014 2.42517e-014
rhumerus -30.5922 -11.4252 -79.5978
rradius 33.54
rwrist 3.80357
rhand -14.8364 12.3551
rfingers 7.12502
rthumb 11.3226 -17.3193
lclavicle 1.98039e-014 2.42517e-014
lhumerus -32.6556 11.5416 84.7379
lradius 22.0956
lwrist -11.508
lhand -13.5662 26.0304
lfingers 7.12502
lthumb 12.5474 55.6336
rfemur 1.46423 2.08817 25.1148
rtibia 44.2189
rfoot 6.19412 0.941375
rtoes -0.37176
lfemur -22.6472 -0.215837 -20.551
ltibia 28.6363
lfoot -4.34625 1.84497
ltoes 11.6655
447
root -15.5806 17.4535 12.7109 163.818 -85.1473 -162.917
lowerback 5.12896 2.35393 0.265914
upperback 0.0240074 3.19422 2.04003
thorax -2.95094 1.59259 1.70723
lowerneck -15.521 -4.6236 -7.22497
upperneck 25.0238 -6.07 3.96469
head 10.9985 -3.11842 1.76453
rclavicle 2.61153e-014 1.43125e-014
rhumerus -31.0526 -12.0826 -79.1605
rradius 33.3466
rwrist 4.64399
rhand -14.1352 13.0199
rfingers 7.12502
rthumb 11.9987 -16.6161
lclavicle 2.61153e-014 1.43125e-014
lhumerus -32.6652 11.6787 84.7573
lradius 22.0816
lwrist -11.7778
lhand -13.1985 25.9497
lfingers 7.12502
lthumb 12.9018 55.5309
rfemur 0.223073 1.84728 24.7969
rtibia 46.6208
rfoot 8.62237 1.31658
rtoes 2.91736
lfemur -21.8265 -0.189993 -20.8662
ltibia 28.5182
lfoot -4.76895 1.6201
ltoes 9.26237
448
root -15.735 17.4619 12.7388 162.884 -85.1914 -162.1
lowerback 5.14999 2.2935 0.439858
upperback 0.056667 3.12327 2.08502
thorax -2.92013 1.55422 1.66184
lowerneck -15.5519 -4.58555 -7.32817
upperneck 25.0386 -5.98765 3.97333
head 11.0088 -3.08931 1.79648
rclavicle -4.57205e-015 1.47101e-014
rhumerus -31.3098 -11.9357 -79.2179
rradius 33.3043
rwrist 3.4389
rhand -14.6875 12.5029
rfingers 7.12502
rthumb 11.4661 -17.1635
lclavicle -4.57205e-015 1.47101e-014
lhumerus -32.5611 11.6067 84.7956
lradius 22.0533
lwrist -12.3013
lhand -12.5447 25.5392
lfingers 7.12502
lthumb 13.5321 55.0795
rfemur -1.19497 1.53931 24.6169
rtibia 49.1166
rfoot 10.9459 1.85589
rtoes 5.66795
lfemur -20.967 -0.392662 -20.994
ltibia 28.1873
lfoot -5.04133 1.62407
ltoes 7.11747
449
root -15.8808 17.4703 12.7957 169.618 -85.3711 -168.993
lowerback 5.34655 2.19193 0.443957
upperback 0.0831797 2.98535 1.80963
thorax -2.98393 1.48453 1.37955
lowerneck -15.8486 -4.54925 -7.66163
upperneck 25.3242 -5.91312 4.2428
head 11.1904 -3.05356 1.95627
rclavicle 3.70236e-015 1.43125e-014
rhumerus -31.3282 -12.0932 -79.4611
rradius 32.9191
rwrist 2.51682
rhand -15.9348 11.6583
rfingers 7.12502
rthumb 10.2631 -18.0713
lclavicle 3.70236e-015 1.43125e-014
lhumerus -32.4083 11.3784 84.8512
lradius 22.0407
lwrist -12.3789
lhand -12.4118 25.4121
lfingers 7.12502
lthumb 13.6601 54.9438
rfemur -2.68341 1.18232 23.4957
rtibia 51.6861
rfoot 13.1562 2.05495
rtoes 9.83237
lfemur -20.0888 -1.05164 -21.9447
ltibia 27.8548
lfoot -5.18559 2.65046
ltoes 8.09685
